#N canvas 249 122 630 577 10;
#X obj 6 24 c.patcherinfos;
#X obj 7 15 c.loadmess;
#X obj 1 3 c.help.header;
#X obj 39 289 c.wavesel @size 523 82 @fontname "Helvetica" @fontweight
"normal" @fontslant "roman" @fontsize 11 @receive "(null)" @send "(null)"
;
#X floatatom 39 397 8 0 0 0 - - -, f 8;
#X floatatom 211 397 8 0 0 0 - - -, f 8;
#X floatatom 384 397 8 0 0 0 - - -, f 8;
#X floatatom 516 397 8 0 0 0 - - -, f 8;
#X msg 39 113 state;
#N canvas 1 83 450 300 voice 0;
#X obj 120 98 soundfiler;
#X obj 120 49 f \$0;
#X obj 120 27 loadbang;
#X msg 120 70 read -resize voice.wav \$1-voice;
#X floatatom 120 119 8 0 0 0 - - -, f 8;
#X obj 120 138 table \$0-voice;
#X obj 91 24 bng 15 250 50 0 empty empty empty 17 7 0 10 -262144 -1
-1;
#X connect 0 0 4 0;
#X connect 1 0 3 0;
#X connect 2 0 1 0;
#X connect 3 0 0 0;
#X connect 6 0 1 0;
#X restore 337 430 pd voice;
#X msg 269 121 setarray \$1-voice;
#X obj 242 74 f \$0;
#X obj 242 54 bng 15 250 50 0 empty empty empty 17 7 0 10 -262144 -1
-1;
#X obj 242 96 t f f;
#N canvas 1 84 450 300 voice2 0;
#X obj 120 98 soundfiler;
#X obj 120 49 f \$0;
#X obj 120 27 loadbang;
#X floatatom 120 119 8 0 0 0 - - -, f 8;
#X obj 91 24 bng 15 250 50 0 empty empty empty 17 7 0 10 -262144 -1
-1;
#X obj 120 138 table \$0-voice2;
#X msg 120 70 read -resize voice2.wav \$1-voice2;
#X connect 0 0 3 0;
#X connect 1 0 6 0;
#X connect 2 0 1 0;
#X connect 4 0 1 0;
#X connect 6 0 0 0;
#X restore 338 452 pd voice2;
#X obj 122 75 f \$0;
#X obj 122 55 bng 15 250 50 0 empty empty empty 17 7 0 10 -262144 -1
-1;
#X obj 122 97 t f f;
#X msg 149 122 setarray \$1-voice2;
#X msg 399 185 mode \$1;
#X obj 399 59 c.menu @size 100 14 @fontname "Helvetica" @fontweight
"normal" @fontslant "roman" @fontsize 11 @receive "(null)" @send "(null)"
@presetname "(null)" @hover 0 @items "none" "select" "loop" "move"
"draw" @states 0 0 0 0 0 @bgcolor 0.75 0.75 0.75 1 @bdcolor 0.5 0.5
0.5 1 @textcolor 0 0 0 1;
#X msg 415 92 1;
#X msg 416 112 2;
#X msg 416 132 3;
#X msg 417 152 4;
#X msg 451 92 select;
#X msg 451 151 draw;
#X msg 452 131 move;
#X msg 451 112 loop;
#X msg 493 115 wavesel_sym_loop;
#X msg 401 230 setmode \$1;
#X obj 401 210 hradio 15 1 0 5 empty empty empty 0 -8 0 10 -262144
-1 -1 1;
#X connect 0 0 2 0;
#X connect 1 0 0 0;
#X connect 3 0 4 0;
#X connect 3 1 5 0;
#X connect 3 2 6 0;
#X connect 3 3 7 0;
#X connect 8 0 3 0;
#X connect 10 0 3 0;
#X connect 11 0 13 0;
#X connect 12 0 11 0;
#X connect 13 1 10 0;
#X connect 15 0 17 0;
#X connect 16 0 15 0;
#X connect 17 1 18 0;
#X connect 18 0 3 0;
#X connect 19 0 3 0;
#X connect 20 0 19 0;
#X connect 21 0 19 0;
#X connect 22 0 19 0;
#X connect 23 0 19 0;
#X connect 24 0 19 0;
#X connect 25 0 19 0;
#X connect 26 0 19 0;
#X connect 27 0 19 0;
#X connect 28 0 19 0;
#X connect 29 0 19 0;
#X connect 30 0 3 0;
#X connect 31 0 30 0;
