#N canvas 115 468 450 300 10;
#X text 101 49 Here is the GUI object:;
#X obj 134 70 GUI/GUI1;
#X obj 122 26 bng 15 250 50 0 empty empty empty 17 7 0 10 -262144 -1
-1;
#X text 26 109 The GUI1 object implements the minimal functionality
for a GUI object. This does not include any drawing on the canvas.
It has however the default inlet.;
#X text 169 73 <<---;
#X text 92 73 --->>;
#X connect 2 0 1 0;
