#N canvas 518 82 569 531 10;
#X obj 0 687 cnv 15 552 21 empty empty empty 20 12 0 14 -233017 -33289
0;
#X obj 1 380 cnv 3 550 3 empty empty inlets 8 12 0 13 -228856 -1 0
;
#N canvas 640 421 399 237 META 0;
#X text 1 20 LICENSE SIBSD;
#X text 1 100 LIBRARY cyclone;
#X text 1 60 INLET_0 signal message float;
#X text 1 80 OUTLET_0 float;
#X text 1 40 DESCRIPTION reports various forms of average value of
signal;
#X text 1 0 KEYWORDS average mean audio signal;
#X text 0 119 VERSION 0.1-alpha57;
#X text 0 137 AUTHOR Krzysztof Czaja;
#X text 1 155 RELEASE_DATE 2002;
#X text 2 174 WEBSITE http://suita.chopin.edu.pl/~czaja/miXed/externs/cyclone.html
;
#X text 2 206 HELP_PATCH_AUTHORS Christoph Kummerer. Revised by Jonathan
Wilkes for Pd-extended 0.42 to conform to the PDDP template. Alex Cleveland
updated this patch for Pd-l2ork version 2013.05.28. Fred Jan Kraan
adapted the patch to pd-extended 2015-02-02;
#X restore 500 690 pd META;
#X obj 1 491 cnv 3 550 3 empty empty outlets 8 12 0 13 -228856 -1 0
;
#X obj 1 552 cnv 3 550 3 empty empty arguments 8 12 0 13 -228856 -1
0;
#X obj 1 606 cnv 3 550 3 empty empty more_info 8 12 0 13 -228856 -1
0;
#N canvas 155 571 428 92 Related_objects 0;
#X obj 0 0 cnv 15 425 20 empty empty empty 3 12 0 14 -204280 -1 0;
#X text 6 1 Related Objects;
#X obj 6 29 cyclone/avg~;
#X restore 199 690 pd Related_objects;
#X obj 77 506 cnv 17 3 17 empty empty 0 5 9 0 16 -228856 -162280 0
;
#X obj 1 0 cnv 15 552 40 empty empty average~ 3 12 0 18 -204280 -1
0;
#X text 102 393 signal;
#X text 102 505 float;
#X text 90 622 RMS values are often used to measure signal levels.
The RMS mode of the average~ object is considerably more CPU intensive
than the absolute mode. The absolute mode often works as well as the
RMS mode in many level-detection tasks.;
#X text 12 23 reports various forms of average value of signal;
#X obj 165 73 cycle~ 2;
#X obj 148 48 cycle~ 100;
#X floatatom 311 111 0 0 0 0 - - -;
#X msg 354 73 rms;
#X msg 238 73 bipolar;
#X msg 294 73 absolute;
#X obj 149 99 *~;
#X text 102 414 message;
#X text 169 499 average~ reports the running mean amplitude of a signal
\, averaged over a specified number of samples. There are three methods
of averaging available:;
#X obj 495 2 average~;
#X text 89 564 1) float - sets maximum averaging interval. default
is 100 2) message - sets mode \, as shown above. default is bipolar.
;
#X obj 77 396 cnv 17 3 80 empty empty 0 5 9 0 16 -228856 -162280 0
;
#X text 102 462 float;
#X msg 343 137 500;
#X msg 375 137 1000;
#X msg 311 137 10;
#X obj 520 260 dspSwitch~;
#X text 169 413 - bipolar: -sets bipolar average mode.;
#X text 169 429 - absolute: -sets absolute average mode.;
#X text 169 444 - rms: -sets roor mean square (RMS) average mode.;
#X text 169 392 - the signal to average;
#X text 169 462 - the number of samples the average is applied to;
#X obj 148 240 cyclone/Scope~ 130 130 256 3 128 -0.1 0.1 0 0 0 0 102
255 51 135 135 135 0;
#X obj 284 241 cyclone/Scope~ 130 130 256 3 128 -1 1 0 0 0 0 102 255
51 135 135 135 0;
#X obj 12 244 cyclone/Snapshot~ 100;
#X floatatom 12 273 8 0 0 0 - - -, f 8;
#X msg 9 197 range \$1 \$2;
#N canvas 397 674 450 300 ranger 0;
#X obj 218 21 inlet;
#X obj 69 23 inlet;
#X obj 88 222 outlet;
#X obj 88 188 pack f f;
#X text 215 6 offset;
#X text 67 7 amplification;
#X obj 108 103 * -1;
#X obj 69 64 t f f f;
#X obj 133 152 +;
#X obj 88 151 +;
#X obj 218 53 t b b f f;
#X connect 0 0 10 0;
#X connect 1 0 7 0;
#X connect 3 0 2 0;
#X connect 6 0 8 0;
#X connect 7 1 9 0;
#X connect 7 2 6 0;
#X connect 8 0 3 1;
#X connect 9 0 3 0;
#X connect 10 0 9 0;
#X connect 10 1 8 0;
#X connect 10 2 9 1;
#X connect 10 3 8 1;
#X restore 9 175 pd ranger;
#X obj 9 221 print;
#X msg 24 145 0.01;
#X msg 24 128 0.05;
#X msg 24 111 0.1;
#X msg 24 94 0.5;
#X msg 24 77 1;
#X msg 24 60 5;
#X msg 24 43 10;
#X msg 76 94 0;
#X msg 76 111 -0.5;
#X msg 76 128 -1;
#X msg 76 145 -5;
#X msg 76 77 0.5;
#X msg 76 60 1;
#X msg 76 43 5;
#X obj 149 208 cyclone/average2~ 1000;
#X connect 13 0 19 1;
#X connect 14 0 19 0;
#X connect 15 0 56 0;
#X connect 16 0 56 0;
#X connect 17 0 56 0;
#X connect 18 0 56 0;
#X connect 19 0 36 0;
#X connect 19 0 56 0;
#X connect 26 0 56 0;
#X connect 27 0 56 0;
#X connect 28 0 56 0;
#X connect 37 0 38 0;
#X connect 39 0 35 0;
#X connect 39 0 41 0;
#X connect 40 0 39 0;
#X connect 42 0 40 0;
#X connect 43 0 40 0;
#X connect 44 0 40 0;
#X connect 45 0 40 0;
#X connect 46 0 40 0;
#X connect 47 0 40 0;
#X connect 48 0 40 0;
#X connect 49 0 40 1;
#X connect 50 0 40 1;
#X connect 51 0 40 1;
#X connect 52 0 40 1;
#X connect 53 0 40 1;
#X connect 54 0 40 1;
#X connect 55 0 40 1;
#X connect 56 0 35 0;
#X connect 56 0 37 0;
