#N canvas 340 191 572 531 10;
#X obj 214 214 wavesel~ \$0-voice 322 82;
#X floatatom 340 400 8 0 0 0 - - -, f 8;
#X floatatom 397 399 8 0 0 0 - - -, f 8;
#N canvas 1 80 450 300 voice 0;
#X obj 120 98 soundfiler;
#X obj 120 49 f \$0;
#X obj 120 27 loadbang;
#X msg 120 70 read -resize voice.wav \$1-voice;
#X floatatom 120 119 8 0 0 0 - - -, f 8;
#X obj 120 138 table \$0-voice;
#X obj 91 24 bng 15 250 50 0 empty empty empty 17 7 0 10 -262144 -1
-1;
#X connect 0 0 4 0;
#X connect 1 0 3 0;
#X connect 2 0 1 0;
#X connect 3 0 0 0;
#X connect 6 0 1 0;
#X restore 493 496 pd voice;
#X obj 430 68 f \$0;
#X obj 430 48 bng 15 250 50 0 empty empty empty 17 7 0 10 -262144 -1
-1;
#X obj 340 447 wave~ \$0-voice;
#X obj 341 474 output~;
#N canvas 531 250 450 300 convert 0;
#X obj 132 11 inlet;
#X obj 203 10 inlet;
#X obj 132 263 outlet;
#X obj 203 264 outlet;
#X obj 132 39 t f f;
#X obj 203 39 t f f;
#X obj 144 76 -;
#X obj 80 114 / 1000;
#X obj 80 192 /;
#X obj 80 165 f 1;
#X obj 80 139 t b f;
#X obj 80 224 phasor~;
#X obj 80 262 outlet~;
#X connect 0 0 4 0;
#X connect 1 0 5 0;
#X connect 4 0 2 0;
#X connect 4 1 6 1;
#X connect 5 0 3 0;
#X connect 5 1 6 0;
#X connect 6 0 7 0;
#X connect 7 0 10 0;
#X connect 8 0 11 0;
#X connect 9 0 8 0;
#X connect 10 0 9 0;
#X connect 10 1 8 1;
#X connect 11 0 12 0;
#X restore 340 421 pd convert;
#X obj 373 68 f \$0;
#X obj 373 48 bng 15 250 50 0 empty empty empty 17 7 0 10 -262144 -1
-1;
#N canvas 104 413 450 300 voice2 0;
#X obj 120 98 soundfiler;
#X obj 120 49 f \$0;
#X obj 120 27 loadbang;
#X floatatom 120 119 8 0 0 0 - - -, f 8;
#X msg 120 70 read -resize voice2.wav \$1-voice2;
#X obj 120 138 table \$0-voice2;
#X obj 92 23 bng 15 250 50 0 empty empty empty 17 7 0 10 -262144 -1
-1;
#X connect 0 0 3 0;
#X connect 1 0 4 0;
#X connect 2 0 1 0;
#X connect 4 0 0 0;
#X connect 6 0 1 0;
#X restore 489 471 pd voice2;
#X msg 433 370 set \$1-voice2;
#X obj 430 90 t f f;
#X obj 373 90 t f f;
#X msg 434 346 set \$1-voice;
#X text 451 397 ms;
#X text 180 71 none;
#X text 168 87 select;
#X text 180 103 loop;
#X text 180 121 move;
#X text 180 138 draw;
#X msg 32 61 buftime 0;
#X msg 32 82 buftime 1000;
#X msg 32 156 line 500;
#X msg 32 177 line 1100;
#X msg 214 156 setmode \$1;
#X obj 214 74 vradio 15 1 0 5 empty empty empty 0 -8 0 10 -262144 -1
-1 2;
#X text 230 119 not implemented;
#X text 230 134 not implemented;
#X msg 457 115 set \$1-voice;
#X msg 400 138 set \$1-voice2;
#X obj 0 0 cnv 15 552 40 empty empty wavesel~ 3 12 0 18 -204280 -1
0;
#X obj 486 11 _wavesel~;
#X text 12 23 interactive array/table viewer;
#X obj 0 991 cnv 15 552 21 empty empty empty 20 12 0 14 -233017 -33289
0;
#X obj 0 533 cnv 3 550 3 empty empty inlets 8 12 0 13 -228856 -1 0
;
#N canvas 618 288 348 320 META 0;
#X text 1 18 LICENSE SIBSD;
#X text 0 144 VERSION 0.1-alpha57;
#X text 2 199 WEBSITE http://suita.chopin.edu.pl/~czaja/miXed/externs/cyclone.html
;
#X text 0 162 AUTHOR Fred Jan Kraan;
#X text 1 180 RELEASE_DATE 2015;
#X text 1 126 LIBRARY cyclone playground;
#X text 1 36 DESCRIPTION interactive array/table viewer;
#X text 1 0 KEYWORDS wavetable wave table viewer;
#X text 1 54 INLET_0 message;
#X text 1 72 OUTLET_0 float;
#X text 1 90 OUTLET_1 float;
#X text 1 108 OUTLET_2 float;
#X text 2 231 HELP_PATCH_AUTHORS Fred Jan Kraan;
#X restore 496 993 pd META;
#X obj 0 708 cnv 3 550 3 empty empty outlets 8 12 0 13 -228856 -1 0
;
#X obj 0 858 cnv 3 550 3 empty empty arguments 8 12 0 13 -228856 -1
0;
#N canvas 318 423 428 109 Related_objects 0;
#X obj 0 0 cnv 15 425 20 empty empty empty 3 12 0 14 -204280 -1 0;
#X text 6 1 Related Objects;
#X restore 205 993 pd Related_objects;
#X obj 86 544 cnv 17 3 135 empty empty 0 5 9 0 16 -228856 -162280 0
;
#X obj 86 790 cnv 17 3 17 empty empty 4 5 9 0 16 -228856 -162280 0
;
#X obj 86 766 cnv 17 3 17 empty empty 3 5 9 0 16 -228856 -162280 0
;
#X text 111 765 float;
#X text 110 789 float;
#X text 224 864 - initial table name;
#X text 93 886 2) float;
#X text 93 907 3) float;
#X text 93 864 1) table;
#X text 111 540 set array_name;
#X text 224 541 - change to array/table 'array_name';
#X text 224 886 - initial window width (visual buffer + 2);
#X text 224 907 - initial window height (visual buffer + 2);
#X obj 0 935 cnv 3 550 3 empty empty more_info 8 12 0 13 -228856 -1
0;
#X text 111 557 line n;
#X text 224 557 - sets a vertical line at position n (in ms);
#X text 224 609 - sets the foreground color;
#X text 224 625 - sets the background color;
#X text 224 641 - sets the foreground color;
#X text 224 657 - sets the background color;
#X text 110 657 setfbgselcolor c;
#X text 110 641 setfgselcolor c;
#X text 110 625 setfbgcolor c;
#X text 110 609 setfgcolor c;
#X text 110 574 buftime b;
#X text 110 672 drawwf;
#X text 110 686 reset_selection;
#X text 224 686 - unselects the waveform;
#X text 224 764 - startpoint of the selection (ms);
#X text 224 787 - endpoint of the selection (ms);
#X obj 86 814 cnv 17 3 17 empty empty 5 5 9 0 16 -228856 -162280 0
;
#X text 110 812 float;
#X text 224 672 - refreshes the waveform manually;
#X msg 32 108 clipdraw 0;
#X msg 32 129 clipdraw 1;
#X floatatom 214 308 5 0 0 0 - - -, f 5;
#X floatatom 277 308 8 0 0 0 - - -, f 8;
#X floatatom 466 308 5 0 0 0 - - -, f 5;
#X floatatom 512 308 5 0 0 0 - - -, f 5;
#X text 78 952 wavesel~ is a incomplete clone of waveform~. Functionality
is partially implemented and there are performance problems.;
#X text 224 574 - refresh rate of the canvas. 0 is off;
#X text 110 591 clipdraw c;
#X text 224 591 - clips the displayed waveform when c is 1 off is 0
;
#X obj 86 741 cnv 17 3 17 empty empty 2 5 9 0 16 -228856 -162280 0
;
#X obj 86 717 cnv 17 3 17 empty empty 1 5 9 0 16 -228856 -162280 0
;
#X text 111 716 float;
#X text 110 740 float;
#X text 224 715 - startpoint of the view buffer (ms);
#X text 224 738 - endpoint of the view buffer (ms);
#X obj 86 837 cnv 17 3 17 empty empty 6 5 9 0 16 -228856 -162280 0
;
#X text 110 835 float;
#X text 224 812 - shows mouse button state (incomplete);
#X text 224 835 - not implemented;
#X text 176 49 canvas mode;
#X msg 32 371 setfgselcolor #7f3f7f;
#X msg 32 390 setbgselcolor #3f7f7f;
#X msg 32 409 setbgcolor #dfdfdf;
#X msg 32 428 setfgcolor #3f3f3f;
#X connect 0 0 76 0;
#X connect 0 1 77 0;
#X connect 0 2 1 0;
#X connect 0 3 2 0;
#X connect 0 4 78 0;
#X connect 0 5 79 0;
#X connect 1 0 8 0;
#X connect 2 0 8 1;
#X connect 4 0 13 0;
#X connect 5 0 4 0;
#X connect 6 0 7 0;
#X connect 6 0 7 1;
#X connect 8 0 6 0;
#X connect 8 1 6 1;
#X connect 8 2 6 2;
#X connect 9 0 14 0;
#X connect 10 0 9 0;
#X connect 12 0 6 0;
#X connect 13 0 15 0;
#X connect 13 1 30 0;
#X connect 14 0 12 0;
#X connect 14 1 31 0;
#X connect 15 0 6 0;
#X connect 22 0 0 0;
#X connect 23 0 0 0;
#X connect 24 0 0 0;
#X connect 25 0 0 0;
#X connect 26 0 0 0;
#X connect 27 0 26 0;
#X connect 30 0 0 0;
#X connect 31 0 0 0;
#X connect 74 0 0 0;
#X connect 75 0 0 0;
#X connect 95 0 0 0;
#X connect 96 0 0 0;
#X connect 97 0 0 0;
#X connect 98 0 0 0;
