#N canvas 596 715 450 322 10;
#X obj 44 143 cyclone/average~ 1000;
#X obj 162 111 *~;
#X obj 159 170 vsl 15 128 -1 1 0 0 empty empty empty 0 -9 0 10 -262144
-1 -1 11190 1;
#X obj 127 66 osc~ 1;
#X obj 184 66 osc~ 1.01;
#X obj 174 170 vsl 15 128 -1 1 0 0 empty empty empty 0 -9 0 10 -262144
-1 -1 10669 1;
#X obj 185 143 average2~ 1000;
#X floatatom 333 45 0 0 0 0 - - -;
#X msg 376 7 rms;
#X msg 260 7 bipolar;
#X msg 316 7 absolute;
#X msg 365 71 500;
#X msg 397 71 1000;
#X msg 333 71 10;
#X obj 238 205 hsl 128 15 -1 1 0 0 empty empty empty -2 -8 0 10 -262144
-1 -1 6870 1;
#X obj 203 173 -;
#X floatatom 211 228 5 0 0 0 - - -, f 5;
#X connect 0 0 2 0;
#X connect 0 0 15 0;
#X connect 1 0 0 0;
#X connect 1 0 6 0;
#X connect 3 0 1 0;
#X connect 4 0 1 1;
#X connect 6 0 5 0;
#X connect 6 0 15 1;
#X connect 8 0 6 0;
#X connect 8 0 0 0;
#X connect 9 0 6 0;
#X connect 9 0 0 0;
#X connect 10 0 6 0;
#X connect 10 0 0 0;
#X connect 11 0 6 0;
#X connect 11 0 0 0;
#X connect 12 0 6 0;
#X connect 12 0 0 0;
#X connect 13 0 6 0;
#X connect 13 0 0 0;
#X connect 15 0 14 0;
#X connect 15 0 16 0;
